<?xml version="1.0" encoding="UTF-8" standalone="no"?> <svg xmlns:dc="http://purl.org/dc/elements/1.1/" xmlns:cc="http://creativecommons.org/ns#" xmlns:rdf="http://www.w3.org/1999/02/22-rdf-syntax-ns#" xmlns:svg="http://www.w3.org/2000/svg" xmlns="http://www.w3.org/2000/svg" xmlns:sodipodi="http://sodipodi.sourceforge.net/DTD/sodipodi-0.dtd" xmlns:inkscape="http://www.inkscape.org/namespaces/inkscape" width="1300" height="1300" viewBox="0 0 100.23311 100.23312" id="svg22" sodipodi:docname="SVDP_Logo.svg" inkscape:version="1.0beta2 (2b71d25, 2019-12-03)" inkscape:export-filename="/home/net/work/SVDP_Marion/Graphics/SVDP_Icon_Web.png" inkscape:export-xdpi="32.77" inkscape:export-ydpi="32.77"><metadata id="metadata28"></metadata><defs id="defs26"></defs><g fill-rule="evenodd" clip-rule="evenodd" id="g20" transform="translate(-37.998227,-41.595786)"><g transform="matrix(0.57046662,0,0,0.57046662,-50.140868,42.712427)" id="g1582"><path style="clip-rule:evenodd;fill:#0088bb;fill-opacity:1;fill-rule:evenodd;stroke:none;stroke-width:0.999895" d="m 242.38088,-1.9574175 c 48.36985,0 87.82636,39.4950485 87.82636,87.8518645 0,48.407793 -39.45651,87.851863 -87.82636,87.851863 -48.42086,0 -87.87737,-39.44407 -87.87737,-87.851863 0,-48.356816 39.45651,-87.8518645 87.87737,-87.8518645 z" fill="#32388f" id="path4" inkscape:connector-curvature="0"></path><path inkscape:connector-curvature="0" id="path6" style="clip-rule:evenodd;fill:#ffffff;fill-rule:evenodd;stroke-width:12.9698" d="m 2707.4883,-460.36719 v 3.94336 c 0.6485,0.66146 1.3092,0.66016 1.9707,0.66016 4.6172,0.66146 7.886,1.97195 9.8574,3.94336 2.6329,1.9714 3.2949,3.94266 3.2949,5.91406 0,3.29432 -1.3111,9.20938 -4.6054,17.08203 l -34.8106,84.08203 -36.7812,-84.74414 c -3.2814,-7.87265 -4.6055,-13.12555 -4.6055,-17.06836 0,-2.63286 0.6614,-4.59114 2.6328,-5.91406 1.9714,-1.9714 6.576,-3.2819 13.1387,-3.94336 v -3.94141 h -59.1153 v 3.94141 c 4.5913,0.66146 7.873,1.32287 10.5059,2.63281 2.6199,1.30995 4.5911,3.28251 6.5625,5.25391 1.3229,1.30995 3.2812,5.25245 5.9141,11.82812 l 54.5254,124.8086 h 3.9414 l 50.582,-123.49805 c 2.6329,-7.22416 5.9016,-12.47841 9.8574,-15.75976 2.6329,-2.63287 6.5624,-3.94271 11.8281,-5.26563 v -3.94141 -0.0137 z m 86.7168,6.57617 -0.6621,3.94336 5.2656,0.66016 c 3.2943,0 6.5631,1.30985 9.8574,3.28125 1.9714,1.9714 3.2676,3.2825 3.2676,5.25391 0.6615,2.61989 0.6615,7.2231 0,14.44726 l -11.8027,93.2793 c -0.6485,8.5341 -2.6322,13.78641 -4.6036,15.75781 -2.6328,3.28135 -7.2237,4.60482 -13.125,3.94336 l -5.2656,-0.66211 -0.6621,3.94336 61.7617,7.23633 0.6621,-3.94141 -5.2656,-0.65039 c -3.2684,0 -6.5624,-1.30984 -9.1953,-3.28125 -1.9844,-1.9714 -3.2942,-3.28055 -3.9297,-5.25195 -0.6614,-2.61989 -0.6614,-7.22506 0,-14.44922 l 11.8008,-93.27734 c 0.6485,-8.54708 2.6341,-13.80008 4.6055,-15.77149 3.2943,-3.28135 7.2237,-4.60482 13.125,-3.94336 l 5.2656,0.66211 0.6621,-3.94336 z m 107.7383,11.82813 -0.6485,3.26758 a 35.563097,35.563097 0 0 1 8.5352,3.94336 c 3.9428,2.63286 6.5755,4.60476 7.8984,6.57617 1.9585,1.9714 3.9297,6.57537 6.5625,11.82812 l -27.5859,97.22071 c -2.6329,7.88561 -4.6185,12.47781 -6.5899,14.44922 -3.2683,2.61989 -8.5343,3.28065 -14.4355,1.9707 l -4.6035,-1.9707 -1.3223,3.94335 48.6094,13.79883 1.3242,-3.28125 -5.2402,-1.9707 c -5.2787,-1.30995 -8.5482,-3.94326 -10.5196,-7.22461 -1.3229,-2.63286 -0.6602,-8.53496 1.9727,-17.08203 l 24.291,-86.05274 59.7793,138.60743 3.9551,1.30859 33.4883,-117.57031 c 1.9714,-7.88562 4.617,-12.47586 6.5625,-14.44727 3.2813,-2.63286 7.8975,-3.29562 13.7988,-1.32422 l 5.2402,1.32422 1.3223,-3.94336 -48.6094,-13.80078 -1.2969,3.94336 4.5899,1.31055 c 5.9012,1.30994 9.1965,3.94326 11.168,7.22461 1.3229,3.29432 0.6621,8.533 -1.9707,17.08008 l -22.9961,80.14062 -55.1739,-128.75195 z m -545.8848,30.21875 -109.6836,44.66797 11.166,32.1914 3.2813,-1.9707 c -1.9844,-5.91421 -1.9838,-11.18019 -1.3223,-15.77148 1.3229,-4.60427 3.2812,-8.53511 5.9141,-11.16797 2.6328,-1.97141 6.5759,-3.92964 13.1386,-6.5625 l 15.7442,-6.54883 41.3867,102.47461 c 3.2813,7.87265 4.6048,12.47646 3.9434,15.75781 -0.6615,3.94281 -4.6047,7.22456 -9.8575,9.85742 l -4.5918,1.95703 1.3243,3.28126 57.1445,-22.99415 -1.9707,-3.28125 -4.5918,1.97071 c -5.2528,1.9714 -9.1959,1.9714 -13.1387,0 -2.6328,-1.30995 -5.2525,-5.90149 -9.1953,-13.78711 l -41.3867,-103.13477 19.0527,-7.88672 c 5.9142,-1.9714 10.5045,-2.63281 14.4473,-2.63281 4.5913,0.66146 7.8873,2.62105 11.8301,5.25391 1.9584,1.9714 4.5897,5.91326 7.8711,11.16601 l 3.2812,-1.9707 z m 779.3105,54.38867 a 68.441452,68.441452 0 0 0 -4.1718,0.12305 c -13.1254,1.30994 -25.6143,5.25305 -36.7813,13.13867 -11.167,7.88562 -20.3631,18.39092 -26.9258,31.5293 -7.8726,15.75826 -10.5059,31.52949 -7.873,47.94922 3.2684,22.32096 16.4194,38.09279 37.4433,49.25976 11.8414,5.91421 23.6436,8.54818 34.8106,7.88672 11.167,-1.30995 23.6579,-5.91446 35.4863,-13.78711 l -1.9707,-3.28125 c -13.1513,6.5627 -23.6703,9.85542 -31.5429,10.50391 a 55.705143,55.705143 0 0 1 -24.9551,-5.91407 c -9.857,-5.25275 -17.1059,-11.82722 -22.3457,-20.36132 -5.2787,-7.88562 -7.8861,-17.72957 -7.2246,-28.24805 0.6614,-10.50551 3.9302,-21.67288 9.8574,-32.83984 7.2241,-14.44832 15.0974,-24.95423 24.293,-32.83985 8.5341,-7.22416 17.7282,-11.8151 26.9238,-12.47656 9.1955,-0.66146 17.7309,1.30914 26.291,5.25195 10.4925,5.26573 17.729,12.47697 22.3203,22.33399 3.9428,9.19556 4.6036,21.67342 1.9707,36.7832 l 3.2949,1.32227 19.0528,-45.32813 -3.2813,-1.32422 c -1.9844,2.61989 -4.5917,4.59245 -7.2246,5.25391 -1.9714,0.66146 -3.2942,-6.5e-4 -5.2656,-0.66211 -1.3229,-0.64849 -2.6204,-1.97191 -4.5918,-4.5918 a 67.45575,67.45575 0 0 0 -24.3184,-21.02344 68.441452,68.441452 0 0 0 -33.2715,-8.6582 z m -952.0664,21.80859 -3.2422,1.27149 c 1.31,3.28135 1.3099,5.90169 0.6485,7.22461 0,1.9714 -1.3099,3.2819 -3.2813,3.94336 -1.3229,0.66146 -3.9555,1.32221 -8.5468,1.9707 -9.1956,0.64849 -17.0825,2.61969 -24.3067,6.5625 -10.5185,5.91421 -17.7421,14.44832 -21.0234,24.9668 -3.2814,10.51848 -2.62,19.71459 2.6328,28.91015 2.6329,5.25276 6.5754,9.8437 11.8281,12.47657 4.6043,3.28135 10.5193,5.25255 17.0821,6.5625 6.5627,0.66145 16.4188,1.32226 30.8671,1.32226 14.4613,0 22.9947,0.64909 26.9375,1.31055 4.5913,0.64849 9.1972,1.97195 12.4786,3.94336 3.2813,2.61989 5.9133,5.25185 7.8847,8.5332 3.2814,5.25276 3.282,11.16842 1.3106,18.39258 -1.9714,6.57567 -7.2238,11.82672 -15.1094,15.76953 -6.5757,3.94281 -13.8012,5.91602 -21.0254,5.91602 -7.2242,0.64849 -13.8,-1.3105 -19.0527,-3.94336 -5.2658,-3.29432 -11.1795,-8.54793 -17.7422,-17.08203 l -3.2813,1.97265 24.3047,43.35742 3.2813,-1.9707 c -1.31,-2.61989 -1.9701,-5.25451 -1.3086,-6.56445 0.6614,-1.30995 1.3098,-2.61979 3.2812,-3.28125 1.31,-1.32292 5.9145,-2.63146 13.1387,-3.94141 6.5627,-1.30994 11.8157,-1.9713 13.7871,-3.28125 3.2943,-0.64849 7.2362,-2.62039 10.5176,-4.5918 11.8154,-6.5627 19.7011,-15.11037 22.9824,-26.27734 3.9298,-11.16697 2.6199,-21.67162 -2.6328,-30.86719 -2.6329,-5.25275 -6.5767,-9.19586 -11.168,-13.13867 -5.2527,-3.28135 -10.5174,-5.2526 -17.0801,-5.91406 -5.9142,-1.30995 -17.0679,-1.95904 -32.1777,-1.31055 -19.0655,0 -31.5428,-1.30984 -38.1055,-3.28125 -3.9428,-1.9714 -7.2245,-4.59039 -9.8574,-8.5332 -2.6199,-5.25276 -3.2813,-10.51933 -0.6484,-17.08203 1.9714,-6.57567 5.9138,-11.16657 12.4765,-15.10938 5.9143,-2.63286 11.8286,-4.59179 19.0528,-4.59179 7.2241,0 13.1385,1.31109 19.0527,5.2539 5.9013,3.28135 11.1542,8.54532 17.0684,16.41797 l 3.2812,-1.9707 z m 284.5977,26.54297 c -1.0823,-0.008 -2.2226,0.14844 -3.4531,0.39649 a 12.969765,12.969765 0 0 0 -7.8711,5.26562 c -1.31,2.6199 -1.972,5.91396 -1.3106,9.19532 0.6615,2.63286 2.6191,5.2532 5.252,7.2246 2.6328,1.30995 5.9139,1.97006 9.1953,1.3086 3.2813,-0.64849 5.2532,-2.61909 7.2246,-5.25195 1.9714,-2.6199 1.972,-5.91397 1.3105,-9.19532 -0.6614,-2.63286 -2.621,-5.2532 -5.2539,-7.22461 -1.6455,-1.24023 -3.2898,-1.70583 -5.0937,-1.71875 z m 786.1601,12.22461 -1.9726,3.28125 3.9316,2.61914 c 5.2658,3.29432 7.8718,6.57673 8.5332,10.51953 0,3.29433 -1.9589,7.88587 -7.2246,15.77149 l -52.541,78.16797 c -3.9558,5.90124 -7.2498,9.18289 -9.1953,11.1543 -1.9844,1.32291 -3.955,1.98372 -6.5879,1.32226 -3.2684,0 -6.5624,-1.30985 -9.1953,-3.28125 l -4.5918,-2.63281 -1.9707,3.28125 92.6172,62.41015 30.8808,-23.64257 -3.9296,-1.97266 c -8.5731,4.5913 -16.4465,7.88667 -22.3477,8.53516 -4.6172,1.32291 -9.1959,1.32291 -12.4902,0 -3.9299,-1.30995 -9.1951,-3.94386 -15.7578,-8.53516 l -20.3633,-13.79883 c -3.2944,-2.63286 -5.2656,-3.94266 -6.5625,-5.91406 a 4.1632947,4.1632947 0 0 1 0,-3.94336 c 0,-1.98437 1.9459,-5.26482 5.2402,-10.51758 l 26.9258,-39.41601 26.2637,17.74218 c 5.2787,3.28135 8.5721,6.56245 10.5175,9.19532 1.323,2.61989 1.9857,5.90229 1.3243,8.53515 0,1.97141 -1.9849,6.57597 -4.5918,13.13867 l 3.2675,1.97071 28.2481,-42.04688 -3.2676,-1.97265 c -5.2657,6.57567 -9.8573,10.51948 -15.123,11.16797 -3.9299,0 -9.1952,-1.97121 -15.7579,-6.5625 l -26.2636,-17.74415 32.164,-47.28711 32.8789,22.35938 c 5.9013,3.94281 9.8451,7.22391 11.168,9.19531 2.6329,3.28135 3.2676,6.57607 3.2676,9.85742 0,3.94281 -1.2975,9.19577 -4.5918,16.41993 l 3.2949,1.9707 16.4199,-26.9375 z m -566.9218,24.29297 c -488.7267,0 -886.7957,398.08124 -886.8086,886.14649 0,488.07824 398.0819,886.80664 886.8086,886.80664 488.0782,0 886.1328,-398.7284 886.1328,-886.80664 0,-488.06525 -398.0546,-886.14649 -886.1328,-886.14649 z m -706.1524,77.54492 c -7.8726,1.30995 -14.4484,3.94256 -19.7011,9.19532 a 39.064934,39.064934 0 0 0 -11.8282,19.05273 39.933908,39.933908 0 0 0 0.6485,21.67383 57.053998,57.053998 0 0 0 13.7871,21.67187 l 3.9433,4.5918 -13.8007,13.13867 5.2656,5.25196 13.7871,-12.49024 44.0078,46.638673 c 4.6043,5.252755 7.8854,9.196565 8.5469,11.167969 a 11.05024,11.05024 0 0 1 0.6601,7.884766 c -0.6485,2.619892 -1.9699,4.591095 -4.5898,6.5625 l -3.2949,3.294921 2.6328,2.621094 43.3574,-39.416015 -2.6328,-3.28125 -6.5625,6.5625 c -3.2814,2.619892 -7.2232,3.929738 -11.166,3.28125 -3.2814,0 -7.8729,-3.941908 -13.7871,-10.517579 l -44.0196,-47.289059 18.377,-17.05469 -5.252,-5.25195 -18.3906,17.08007 -4.5918,-5.25195 c -10.5055,-11.154 -17.0677,-18.39248 -18.3906,-21.67383 -1.9714,-3.28135 -2.6212,-6.56245 -1.9727,-9.19531 a 14.993049,14.993049 0 0 1 3.9434,-7.88476 10.53145,10.53145 0 0 1 7.2246,-3.28126 c 2.6329,-0.66145 5.9263,-0.6615 10.5176,0.64844 4.6042,0.66146 7.886,1.3106 9.8574,0.66211 2.6199,0 3.929,-0.66271 5.252,-1.97265 1.2969,-1.32292 1.9596,-3.2812 2.621,-5.91407 0,-2.61989 -0.6626,-5.25255 -2.621,-6.5625 -2.6329,-2.63286 -6.5754,-3.94336 -11.8282,-3.94336 z m 1421.5137,4.56641 -3.3086,2.61914 c 3.2943,3.28135 5.2663,5.90164 5.9277,7.87305 1.9714,3.94281 3.2676,7.23753 3.2676,9.85742 0.6615,2.63286 0.6615,7.23613 0,13.79883 l -72.2402,69.634763 c -5.9013,5.914213 -10.5195,8.533855 -13.1524,9.195313 -4.5913,0.661458 -9.1951,-1.309145 -13.125,-5.251954 l -3.2949,-3.943359 -3.293,2.621094 35.4844,36.794922 2.6074,-3.294922 -3.2695,-3.28125 c -3.9558,-3.929839 -5.9258,-8.533754 -5.9258,-12.476563 0.6615,-2.632862 3.9543,-7.224458 9.8555,-13.138672 l 64.3965,-62.410152 -17.7559,149.7753869 3.293,2.6328121 87.3652,-84.746093 c 5.9013,-5.252755 10.5176,-8.533855 13.1504,-9.195313 4.5913,-0.661458 8.5357,1.322766 13.127,5.914063 l 3.2929,3.28125 3.295,-2.619141 -35.4844,-36.132815 -2.6074,2.63281 3.2675,3.94141 c 3.9558,3.94281 5.9278,7.885318 5.9278,11.828126 -0.6615,3.268381 -3.9549,7.872897 -10.5176,13.78711 l -59.7793,57.820312 16.4199,-139.269528 z M 1915.2949,-41.923828 c -14.4483,0 -26.2771,5.253605 -35.4726,17.082031 a 46.846793,46.846793 0 0 0 -9.8692,21.6718751 c -0.6614,8.5470755 0.6607,17.0817799 4.6035,26.2773439 3.9428,9.195564 9.1958,16.419771 16.42,22.333984 9.857,7.22416 20.3629,11.828074 32.8398,12.476563 14.4613,0.661458 26.9373,-5.252954 36.1328,-16.419922 5.2657,-7.224159 9.196,-15.110426 9.8574,-23.644531 1.323,-8.534106 -0.6489,-17.0798273 -4.5918,-26.275391 -4.6042,-8.534106 -9.8559,-15.759615 -17.08,-21.673828 -9.1956,-7.885618 -20.363,-11.828125 -32.8399,-11.828125 z m 1635.0078,11.828125 -29.5586,17.082031 2.6075,3.2812501 c 5.2657,-3.2813511 10.5187,-4.5917971 15.123,-4.5917971 5.2398,0 9.1953,1.310497 11.8281,3.94336 2.607,1.971404 5.901,5.2518022 9.1953,11.16601525 l 9.8575,14.44921875 -93.291,60.425781 c -6.5627,4.591297 -11.1413,6.5625 -14.4356,6.5625 -4.6043,0 -8.5338,-2.619041 -11.8281,-7.884765 l -2.6328,-4.591797 -3.2696,2.632812 33.4883,51.230474 3.2949,-1.97071 -2.6328,-4.59179 c -3.2943,-4.60427 -3.9304,-8.53376 -3.2949,-12.47657 1.3229,-3.28135 5.2661,-6.575367 12.4902,-11.828122 l 93.2911,-60.439454 11.1406,17.080078 a 36.445041,36.445041 0 0 1 5.2656,13.800782 c 0,4.604266 -0.6601,8.533754 -3.293,12.476562 -1.3099,2.632863 -3.9309,5.914613 -8.5351,9.857422 l 1.9707,3.28125 27.5879,-19.701172 z m -1649.9375,3.873047 c 1.0081,-0.01994 2.0469,0.0114 3.1153,0.0957 12.4769,0 24.9651,5.915063 38.7519,17.0820311 11.167,8.53410569 17.0827,16.4203719 18.3926,23.6445309 1.9714,7.22416 0.6609,13.13787 -3.9434,18.390625 -5.9142,7.22416 -14.4489,9.85617 -26.2773,7.884766 -11.167,-1.971404 -22.9945,-7.885816 -33.5,-16.419922 -7.2371,-5.914213 -11.828,-11.178885 -15.1094,-16.4316405 -2.6199,-5.914213 -3.9427,-10.518078 -3.2812,-15.109375 0.6485,-3.9557785 1.957,-7.8866685 4.5898,-10.5195315 4.5962,-5.753712 10.2054,-8.477636 17.2617,-8.617187 z m -155.8691,120.287109 -21.6719,45.978517 3.916,1.32226 a 22.580362,22.580362 0 0 1 4.5918,-7.22461 c 1.9714,-1.32291 3.2806,-1.9707 5.252,-1.9707 a 6.3811246,6.3811246 0 0 1 5.914,0.64844 c 2.6199,1.30995 6.5631,5.25245 10.5059,11.82812 l 28.9102,44.66797 -55.1739,7.87305 c -7.8726,1.32292 -13.1249,1.32292 -15.7578,0 -2.6328,-1.30995 -3.942,-3.28115 -4.6035,-6.5625 a 26.134077,26.134077 0 0 1 1.9707,-9.84375 l 1.3223,-2.63477 -3.293,-1.9707 -26.2637,56.4961 3.2813,1.31054 c 1.3099,-1.95843 2.6185,-3.93034 3.9414,-4.5918 3.9298,-3.9428 7.8853,-5.91466 9.8437,-7.2246 2.6329,-0.66146 7.8866,-1.3099 16.4336,-2.63282 l 71.6055,-10.5039 30.8691,14.44726 c 7.8857,3.29432 11.8158,6.57547 13.1387,8.54688 2.6199,3.92984 2.6199,8.535 0,14.44922 l -2.6328,4.60351 3.9414,1.95899 26.2774,-55.83594 -3.9434,-1.9707 -1.9707,4.59179 c -2.6199,5.25276 -5.914,8.53386 -9.1953,9.19531 -3.2814,1.30995 -8.5343,-0.662 -16.4199,-3.94335 l -33.502,-15.75782 -34.8105,-54.52539 c -4.6043,-7.23713 -7.224,-12.47711 -9.1954,-16.41992 -1.3099,-3.94281 -1.9707,-7.88532 -1.9707,-11.82812 0,-3.94281 -6e-4,-6.561803 1.3223,-8.533208 l 0.6621,-1.972656 z M 3615.1602,248.59961 c -5.943,0.11036 -11.8143,1.11631 -17.5567,3.125 -13.1513,3.92984 -23.0089,11.81485 -28.9101,21.67187 -6.5757,10.50551 -7.8719,21.01212 -4.6036,30.86914 a 44.097203,44.097203 0 0 0 7.8731,13.13868 c 3.2943,3.94281 8.5597,7.22456 14.4609,9.85742 l -13.1523,4.60351 1.3242,4.5918 20.3613,23.64258 3.295,-1.9707 c -1.9844,-2.6199 -3.2937,-5.25256 -3.9551,-6.5625 -0.6615,-1.97141 -0.6615,-3.2806 0,-4.60352 0.6485,-1.30995 1.9706,-2.62044 4.6035,-3.94336 1.9584,-1.30995 8.5479,-3.94326 19.7148,-7.22461 l 107.7129,-35.47265 -1.9453,-3.94336 -20.3633,-24.30469 -2.6328,2.63281 c 1.9714,2.63286 3.2949,4.60477 3.2949,6.57617 a 4.1632947,4.1632947 0 0 1 0,3.94336 c 0,1.30995 -1.3222,2.61849 -3.955,3.94141 -1.9844,1.30995 -8.5343,3.94326 -19.0528,7.22461 l -17.7304,5.91406 c 3.9557,-7.22416 3.9551,-15.10977 1.3222,-22.98242 -3.9558,-13.15134 -13.1513,-22.3462 -26.9511,-26.9375 -7.7552,-2.5899 -15.5134,-3.929 -23.1543,-3.78711 z m 15.0234,15.35937 c 5.6678,-0.0811 10.7577,0.9036 15.3555,2.875 6.5627,2.63287 11.1795,7.22446 13.125,13.13868 1.3229,3.28135 1.3235,7.22516 0.6621,11.16796 -1.3229,3.94281 -3.2682,7.22451 -6.5625,10.50586 -2.6329,3.29432 -6.5618,5.91337 -11.166,7.88477 l -47.9493,15.75781 c -7.8856,-3.94281 -13.1257,-9.19516 -15.123,-15.10937 -2.6329,-7.21119 -0.65,-15.09746 4.5898,-23.64453 5.2787,-7.88562 14.4742,-14.46144 28.2481,-19.05274 6.9064,-2.29565 13.1525,-3.44237 18.8203,-3.52344 z m -1964.5039,14.69141 -34.1641,113.66602 31.5313,11.16797 1.3086,-3.94336 c -5.9142,-1.98438 -10.5058,-5.26553 -13.7871,-8.54688 -2.6199,-3.95578 -3.9284,-7.88532 -4.5899,-11.82812 0,-2.6199 1.3099,-7.8729 3.2813,-13.78711 l 4.5898,-17.08203 106.418,32.83984 c 7.2241,1.9714 12.4771,4.59109 13.7871,6.5625 3.2813,3.28135 3.2806,7.8729 1.9707,13.78711 l -1.9707,5.26562 3.9433,1.31055 17.7422,-59.12891 -3.2949,-1.31054 -1.9707,5.2539 c -1.3099,5.25276 -3.9302,8.53251 -7.873,10.50391 -2.6329,1.30995 -7.8859,0.66216 -16.42,-1.9707 l -106.416,-32.83985 6.5625,-19.05273 c 1.31,-5.90125 3.9414,-10.50581 6.5742,-13.13867 a 20.45332,20.45332 0 0 1 11.8301,-5.91407 c 2.6329,-0.64848 7.2225,6.6e-4 13.1367,0.66211 l 0.6621,-3.94336 z m 1994.9922,114.05859 c -4.5299,8.4e-4 -9.3396,0.5156 -14.4707,1.54102 -15.7842,2.61989 -26.9257,8.5336 -34.1758,18.39062 -7.8727,9.85703 -10.5046,20.36299 -8.5332,32.19141 1.9844,10.50551 7.2243,19.03891 16.4199,24.95313 9.2215,5.25275 19.0512,7.88672 28.9082,7.88672 l 1.3242,-3.94336 c -9.1955,-1.30995 -15.759,-3.94386 -19.7148,-8.53516 -4.5783,-3.94281 -7.2103,-9.19516 -8.5332,-15.10938 -1.3229,-9.85702 1.3084,-18.38972 7.8711,-26.92382 7.2371,-8.53411 17.756,-13.80003 32.1914,-16.41993 l 11.8418,66.33985 c 11.8284,-1.97141 20.3624,-7.22376 26.2637,-15.10938 5.9271,-8.54707 7.8732,-17.74248 5.9277,-28.89648 a 40.465668,40.465668 0 0 0 -19.0781,-28.91016 c -7.6684,-4.97552 -16.2765,-7.45692 -26.2422,-7.45508 z m 10.1386,12.59375 c 6.737,-0.0207 12.8387,1.84794 17.4122,4.73047 5.2657,3.94281 8.5338,9.19647 9.1953,14.44922 0.6485,3.95578 0.6486,7.88532 -1.2969,11.82813 -1.31,3.94281 -3.9427,7.22391 -7.8984,9.19531 -1.9714,1.95843 -6.5617,3.28185 -12.4629,4.5918 l -7.8731,-44.66797 c 0.9857,-0.0827 1.9614,-0.12399 2.9238,-0.12696 z m -1940.75,69.74805 v 4.5918 c 7.8857,5.25275 14.4479,10.51808 18.3907,15.10937 3.2943,3.94281 5.2655,7.22516 5.914,11.16797 0.6615,3.94281 0.6615,9.86954 0,17.74219 l -1.9707,24.95312 c -0.6485,3.94281 -1.3092,6.57678 -1.9707,7.88672 a 11.465273,11.465273 0 0 1 -3.2812,2.63282 c -1.9714,0.66145 -5.9139,0.66145 -11.8281,0 l -47.9493,-4.5918 2.6192,-31.5293 c 0.6485,-5.90124 1.9583,-10.50581 3.2812,-13.13867 1.9714,-2.63286 3.9297,-4.59115 6.5625,-5.91406 1.9714,-0.64849 6.5637,-1.30925 13.8008,-1.97071 l 0.6484,-3.94335 -50.582,-3.94336 v 3.94336 c 7.8856,1.32291 13.7988,3.29351 16.4317,7.23632 1.9584,3.28135 3.2825,9.19571 2.621,17.06836 l -3.2832,31.54297 -57.1445,-4.60351 3.9434,-40.08985 c 0.6614,-6.57567 1.3099,-11.81635 2.6328,-14.44922 a 28.001724,28.001724 0 0 1 7.2246,-7.88476 c 3.2813,-1.30995 8.5343,-2.61979 16.4199,-3.28125 v -3.94336 l -31.5293,-1.31055 -9.8574,111.00977 3.9434,0.66015 0.6601,-5.25195 c 0,-5.91421 1.9726,-9.85667 5.2539,-12.47656 1.9714,-1.32292 7.8845,-1.98568 17.0801,-1.32422 l 93.9414,8.54687 c 6.5627,0.64849 11.8138,1.3112 13.7852,1.97266 1.9714,1.30995 3.9433,3.28055 4.5918,5.25195 1.3229,3.28135 1.9707,6.5624 1.3222,9.84375 v 5.26563 l 3.9434,0.66211 9.8574,-111.66992 z m 1887.2559,133.35547 v 61.73633 h 3.9316 v -5.24024 c 0,-5.91421 1.3092,-9.85737 4.6036,-12.49023 1.9714,-1.95844 7.8728,-3.28125 17.0683,-3.28125 h 42.0469 c -0.6615,4.60427 -1.97,9.19586 -1.957,13.13867 -0.6615,3.92984 -1.3243,7.87365 -1.3243,11.16797 0,14.44832 3.9439,25.61438 11.168,33.5 7.8856,7.87265 17.0817,11.81641 28.9102,11.81641 9.1955,0 16.406,-2.6203 22.9687,-7.87305 5.9272,-5.26573 10.5176,-11.18009 13.1504,-19.05274 2.6329,-7.22415 3.957,-17.72951 3.957,-30.88085 v -52.54102 h -3.957 v 5.25391 c 0,5.25275 -1.3215,9.85542 -4.5898,12.48828 -1.9714,1.95843 -7.8982,2.62109 -17.0938,2.62109 h -93.2656 c -8.5341,0 -13.7884,-0.64974 -15.7598,-1.97265 -3.9558,-2.6199 -5.9258,-7.22251 -5.9258,-13.13672 v -5.25391 z m -1863.5996,22.98242 v 5.26563 c 0,3.28135 7e-4,6.5631 -1.9707,9.85742 -0.6615,2.61989 -2.6334,3.93029 -3.9434,5.24023 -2.6328,0.64849 -7.2231,1.30925 -14.4472,1.97071 l -93.2793,6.5625 c -9.1956,0.64848 -14.4485,-6e-4 -17.0684,-1.31055 -3.2943,-2.63286 -5.2526,-6.57532 -5.914,-12.47656 l -0.6602,-5.26563 h -3.9434 l 4.5918,62.41016 3.9414,-0.64844 -0.6601,-5.25195 a 26.198926,26.198926 0 0 1 1.9707,-9.85742 c 1.3099,-1.97141 2.6204,-3.93034 4.5918,-4.5918 1.9714,-1.30995 7.2231,-1.97136 14.4472,-2.63281 l 93.2793,-6.5625 c 8.5341,-0.64849 14.4486,6e-4 16.42,1.31054 3.9428,2.63287 5.9147,7.23813 6.5761,13.15235 v 5.25195 l 3.9414,-0.66211 -3.9414,-61.76172 z m 1937.1523,17.74219 v 0.0137 h 60.4395 c 1.3099,5.91421 1.9707,10.50641 1.9707,14.44922 0,5.90124 -1.3222,11.16652 -3.9551,15.75781 -2.6328,4.60427 -6.5624,8.54613 -11.8281,11.16602 -5.2398,2.63286 -11.1678,3.95703 -17.7305,3.95703 a 32.515202,32.515202 0 0 1 -22.3476,-8.54883 c -5.9013,-5.26572 -8.5332,-11.81365 -8.5332,-19.05078 0,-1.9714 6e-4,-4.60472 0.6621,-7.22461 0,-3.29432 0.6608,-6.57672 1.3222,-10.51953 z m -76.1972,77.52148 -9.8574,44.66797 3.955,0.66016 c 1.9455,-6.57567 3.931,-11.16537 5.9024,-12.48828 2.6328,-1.97141 4.617,-2.63412 6.5625,-1.97266 2.6328,0.66146 6.5883,2.63271 11.8281,5.91406 l 20.3633,14.44922 -11.8281,55.17383 -22.3086,3.96875 c -7.2501,1.32292 -12.4902,1.97075 -15.1231,1.32227 -2.6328,-0.66146 -4.6047,-1.98368 -5.2402,-3.95508 -1.3229,-2.61989 -1.3216,-6.5643 -0.6602,-12.47852 l -3.957,-0.66015 -11.8281,55.83398 3.955,0.66211 c 1.31,-5.25276 3.9433,-9.85667 7.8731,-12.47656 3.2943,-2.63286 9.8448,-4.60477 20.3633,-6.57617 l 128.7636,-24.30469 0.6622,-3.94336 -106.418,-74.24024 c -9.1956,-6.5627 -15.123,-11.82667 -17.7559,-16.41796 -1.2969,-1.97141 -1.9583,-5.91582 -1.2968,-12.47852 z m -1884.6231,7.22266 -1.3105,3.29492 c 13.1384,6.5627 22.3332,13.13847 27.5859,19.70117 5.2657,6.57567 8.5345,14.46194 9.8574,23.64453 1.31,10.50552 0.6616,20.36178 -3.2812,29.57032 -3.9428,9.18259 -9.8572,17.08123 -19.0527,22.33398 -8.5341,5.91421 -19.7009,9.85797 -32.1778,11.81641 -15.7712,2.63286 -29.5706,1.97075 -40.7246,-0.66211 -11.1799,-2.61989 -19.7147,-7.21209 -25.6289,-14.44922 -6.5757,-6.5627 -9.8567,-15.09615 -11.8281,-24.30469 -1.31,-11.15403 -8e-4,-21.67162 5.2519,-30.86719 5.2528,-9.19556 14.4612,-17.08182 28.2481,-23.64453 v -3.29492 l -48.6094,11.16797 0.6484,3.29492 c 3.2944,0.64849 6.5755,1.29623 8.5469,2.61914 1.3229,1.30995 2.6328,3.28055 2.6328,5.25196 0.6615,0.66145 -6e-4,3.28185 -1.3105,6.57617 a 73.56451,73.56451 0 0 0 -2.6328,31.52929 72.397231,72.397231 0 0 0 15.7578,35.45899 c 8.5471,9.85702 19.053,17.74274 32.1914,21.68555 a 84.887115,84.887115 0 0 0 40.7246,3.94336 c 17.7426,-3.28136 32.1924,-10.50556 44.0078,-22.33399 15.7712,-15.77123 21.685,-35.48498 17.7422,-59.12891 -1.9714,-13.1254 -7.2251,-24.30573 -14.4492,-32.83984 -7.2242,-8.5341 -17.7412,-15.77198 -32.1895,-20.36328 z m 1929.9258,49.25977 52.5664,36.7832 -62.4101,11.82812 z M 1748.8613,889.55273 c -9.7694,0.16537 -19.7855,2.30069 -29.9668,6.57422 -19.714,7.87265 -33.5017,21.01122 -42.0488,39.40235 -7.8856,17.75561 -8.5464,35.48517 -1.3223,53.21484 7.2242,17.72966 19.0653,30.22036 36.1465,38.08006 19.0396,9.1956 39.4154,9.1962 61.0879,0.6621 20.3625,-8.5341 34.8104,-21.6733 43.3574,-39.41599 7.8857,-17.72967 7.8856,-36.12059 0.6485,-54.51172 -7.2242,-18.39112 -20.3635,-31.52974 -39.416,-38.7539 -9.1956,-3.61208 -18.7169,-5.41732 -28.4864,-5.25196 z m 20.2481,19.71875 c 4.8956,0.0555 9.3864,0.70733 13.4922,1.93946 13.1513,3.95578 22.3462,12.48988 26.9375,24.96679 5.2527,12.47692 4.6049,23.64363 -1.9707,34.16211 -7.8857,14.46129 -22.9955,25.61569 -44.668,34.82426 -21.6855,8.5341 -39.4156,10.5053 -54.5254,5.914 -11.8284,-3.2943 -19.714,-11.16634 -24.9668,-23.65622 -5.2528,-12.47692 -4.59,-24.29272 1.3242,-35.47266 7.8727,-13.79983 22.9942,-24.96655 45.9766,-34.16211 14.8998,-5.8672 27.63,-8.63767 38.4004,-8.51563 z m 1825.8613,9.20313 c -9.857,0 -18.3917,2.61899 -26.9258,8.5332 -7.8726,5.25276 -14.4601,15.77239 -20.3613,30.22071 -5.2528,13.78686 -6.564,25.61493 -3.957,35.45898 1.9843,9.8441 6.5896,17.7433 13.1523,22.9961 5.9012,5.9142 16.4053,11.1672 29.5566,16.4199 l 55.1739,21.0235 c 7.2112,2.6198 11.8294,5.2531 13.8008,7.873 3.2683,4.5913 3.9161,9.1945 1.9707,14.4473 l -1.9707,5.2539 3.2675,1.3222 18.3907,-47.9492 -3.2676,-1.3222 -1.9707,5.3046 c -1.9714,5.2658 -5.2415,8.5326 -9.1973,9.8555 -2.6328,0.6615 -8.5323,0 -17.0664,-3.293 l -54.5391,-21.0117 c -14.4483,-5.9142 -24.3058,-10.5187 -28.9101,-15.7715 -5.2528,-4.6042 -8.5326,-11.17875 -9.8555,-19.71285 -0.6355,-8.53411 0,-17.06811 3.293,-26.26367 3.2943,-6.57568 6.5637,-12.49014 10.5195,-15.77149 4.6043,-3.92984 9.1946,-6.5631 13.7988,-7.87305 a 43.643261,43.643261 0 0 1 17.7305,1.31055 113.38169,113.38169 0 0 1 19.0527,5.25195 l 58.4668,22.98243 c 7.8727,2.63286 12.4642,5.26487 14.4356,7.88476 2.6329,3.92984 2.6335,8.53436 0.6621,13.78711 l -1.9727,5.25391 3.295,1.95703 22.9961,-59.11524 -3.9571,-1.32226 -1.9707,5.25195 c -1.9714,5.26573 -4.5787,8.53451 -7.873,9.85742 -3.9558,1.30995 -9.8559,1e-4 -17.7285,-3.28125 l -53.2286,-20.36328 c -16.4197,-5.91421 -27.5863,-9.19531 -34.8105,-9.19531 z m -82.0996,130.04879 -61.0996,93.9258 26.2637,31.543 2.6328,-1.9707 c -5.9272,-8.5341 -9.1959,-15.11 -10.5059,-20.3887 -1.3229,-5.2398 -1.985,-10.5063 -0.6621,-15.0976 0.6615,-4.6043 4.6183,-11.8279 10.5195,-21.0235 l 5.9004,-8.5351 c 5.2657,-7.8857 8.5605,-12.4759 9.8574,-13.7989 1.9714,-0.6485 3.2943,-1.3105 5.2657,-1.3105 1.9714,0 5.9022,1.9596 11.1679,5.2539 l 76.1973,49.2715 c 7.2242,4.6042 11.14,8.5474 12.4629,10.5058 1.3229,1.9714 1.9857,5.2519 1.3242,8.5332 0,3.2944 -2.6326,8.548 -6.5625,14.4493 l 3.293,2.6328 35.459,-55.1875 -3.293,-1.9571 -2.6074,4.5899 c -3.2943,4.6043 -6.5767,6.5761 -11.168,7.2246 -2.6329,0.6615 -7.8846,-1.3098 -15.7832,-6.5625 l -78.168,-50.582 c -7.2241,-4.6043 -11.1419,-8.5462 -12.4648,-10.5176 -1.9844,-4.5913 -1.3224,-9.1835 2.6074,-14.4492 l 2.6328,-4.5918 z m -1664.8281,4.9512 c -6.4793,-0.1133 -12.6366,1.635 -18.7891,4.918 -5.2527,2.6199 -9.1959,6.563 -12.4902,11.1543 a 48.63662,48.63662 0 0 0 -6.5625,17.0801 c -0.6615,5.9142 -1.3223,17.0699 -1.3223,32.1796 0.6615,19.0526 -0.6484,31.5409 -3.2812,38.1036 -1.31,4.6042 -4.5924,7.8989 -8.5352,9.8574 -4.6043,2.6458 -10.5057,3.2807 -16.4199,1.3222 -6.5757,-1.9843 -11.828,-6.574 -15.1094,-13.1367 -3.2813,-5.9142 -4.5918,-11.8286 -4.5918,-19.0527 -0.6615,-6.5757 1.3105,-13.1515 4.5918,-19.0527 3.2814,-5.2528 9.1964,-11.1679 17.082,-17.0821 l -1.9726,-3.2812 -44.0196,24.3066 1.9844,3.2813 c 3.2814,-0.6615 5.9147,-1.3236 7.2246,-0.6621 1.31,0.6614 2.6205,1.3235 3.9434,3.2949 0.6485,1.297 1.3086,3.9419 1.3086,8.5332 a 58.519582,58.519582 0 0 0 7.2246,24.3047 c 5.9142,10.4925 13.8011,17.7303 24.3066,21.0117 10.5055,3.2943 20.3611,2.6336 29.5567,-2.6192 5.2398,-2.6198 9.1952,-6.5766 12.4765,-11.1679 2.6329,-5.2528 5.2546,-10.5057 5.9161,-17.0684 1.3099,-6.5757 1.9707,-17.0946 1.9707,-31.543 0,-14.4483 6e-4,-22.9823 0.6621,-26.2636 0.6485,-5.2657 1.9569,-9.8561 4.5898,-13.1504 a 22.541452,22.541452 0 0 1 7.8731,-7.8731 c 5.9142,-3.2813 11.8279,-3.2807 18.3906,-1.3222 6.5627,2.6328 11.8286,7.2367 16.4199,15.1093 3.9428,6.5757 5.9141,13.7993 5.9141,21.0235 0,7.2241 -1.3085,13.8 -4.5899,19.0527 -2.6328,5.2528 -8.548,11.1678 -16.4336,17.7305 l 1.9707,3.2949 43.3594,-23.6582 -1.9726,-3.9434 c -3.2814,1.323 -5.2513,1.9857 -7.2227,1.3243 -1.31,-0.6615 -2.6198,-1.3112 -3.2813,-2.6211 -0.6484,-1.9844 -1.9602,-6.5747 -3.2832,-13.1504 -1.3099,-7.2112 -2.6198,-11.8164 -3.2812,-14.4492 -1.31,-3.2814 -2.6191,-6.5748 -5.252,-10.5176 -5.9142,-11.8155 -15.1103,-19.6881 -26.2773,-22.9824 -4.1876,-1.4786 -8.1905,-2.2172 -12.0781,-2.2852 z m 557.9492,446.9668 -0.6602,3.9434 5.252,0.6601 c 5.2527,1.31 9.1966,3.944 10.5195,7.2383 1.9585,3.2814 1.9585,9.1944 0,17.7285 l -13.1523,55.1738 c -3.9428,17.0812 -5.2533,28.897 -4.5918,35.4727 a 46.276123,46.276123 0 0 0 11.8301,25.627 c 7.2241,7.2241 18.3902,12.4784 33.5,15.7597 14.4483,3.2943 26.277,3.2943 35.4726,0 9.8441,-3.9428 16.4191,-9.1957 21.6719,-16.4199 4.6043,-7.2242 7.8866,-17.7431 11.168,-32.1914 l 13.7988,-57.1445 c 1.3099,-7.8727 3.2825,-12.4779 5.2539,-14.4493 a 14.785533,14.785533 0 0 1 14.4473,-3.9414 l 5.2539,0.6602 1.3086,-3.293 -50.5684,-11.8164 -0.6621,3.9434 5.2656,1.2832 c 5.2528,1.3229 9.1966,3.2818 11.168,7.2246 1.3099,2.6329 1.3093,8.5479 -0.6621,17.082 l -13.1387,57.1446 c -3.9558,15.1097 -7.2368,25.6281 -11.8281,30.8808 -3.9428,5.9013 -9.8436,9.8567 -18.3907,12.4766 -8.5341,1.9714 -17.0817,2.6199 -26.2773,0 -7.2112,-1.31 -13.1255,-3.9303 -17.0684,-7.8731 -4.6042,-3.9558 -7.8724,-7.8989 -9.1953,-12.4902 -1.9714,-4.5913 -2.6321,-10.5044 -1.9707,-17.7285 a 123.96502,123.96502 0 0 1 3.2813,-19.0528 l 13.7871,-61.7617 c 1.9714,-7.8726 3.9426,-13.1262 6.5625,-15.0976 3.2813,-3.2814 7.8846,-3.9428 13.7988,-2.6328 l 5.2539,1.3222 0.6602,-3.9414 z m 412.5312,26.3027 -3.957,0.6602 -33.4883,125.4707 c -3.2943,11.1799 -5.9269,18.3899 -9.1953,22.3457 -1.3099,1.9584 -5.2648,3.9439 -11.166,5.9023 l 0.6602,3.9551 45.3164,-6.5742 -0.6602,-3.9434 c -7.2112,0.6485 -11.8299,0 -13.7754,-1.3242 -2.6328,-1.3099 -3.9551,-3.2935 -3.9551,-5.2519 -0.6614,-2.6199 -7e-4,-7.2375 1.9707,-13.1387 l 5.9024,-24.3047 55.834,-7.2383 11.8281,19.0528 c 3.2943,6.5756 5.9023,11.1678 5.9023,14.4492 0.6615,1.9714 2e-4,3.9426 -1.9453,5.9141 -1.9714,1.9714 -5.2667,3.2688 -11.1679,4.5917 l 0.6621,3.9415 56.4824,-7.8711 -0.6602,-3.9434 c -5.9012,0.6485 -10.5051,-0.6614 -14.4609,-2.6328 -3.2684,-2.6199 -7.8872,-8.5343 -13.127,-17.0684 z m -176.3906,9.7891 c -11.3934,-0.075 -20.5457,3.8133 -28.5586,10.5859 -8.5471,7.2242 -12.4772,15.7582 -13.1387,26.2637 0,5.9142 1.3105,11.1809 3.9434,16.4336 2.6329,5.2528 5.9133,9.856 11.166,14.4473 a 341.83114,341.83114 0 0 0 25.6289,17.0683 c 12.4769,7.2242 19.7012,12.4896 22.334,14.461 3.9299,3.2813 7.2252,6.5637 9.1836,10.5195 1.31,3.9298 2.6328,7.2115 2.6328,11.1543 -0.6614,5.9142 -3.2961,11.8403 -8.5488,16.4316 -5.2398,4.5913 -12.4763,6.5638 -21.6719,5.9024 a 40.686154,40.686154 0 0 1 -21.0234,-5.9024 c -5.9142,-3.2943 -10.5195,-7.8976 -13.8008,-13.1504 -2.6199,-5.2397 -5.2396,-13.1253 -6.5625,-23.6308 h -3.9414 l -1.9727,49.2578 3.9434,0.6621 c 0.6615,-3.2813 1.9713,-5.9147 2.6328,-6.5762 a 5.9920316,5.9920316 0 0 1 4.5918,-1.957 224.37694,224.37694 0 0 0 13.1367,3.9414 c 6.5757,2.6329 11.1673,3.9304 13.1387,4.5918 3.9428,0.6615 7.8853,1.3223 11.8281,1.3223 13.7998,0.6485 24.9679,-3.2805 33.502,-10.5176 8.547,-7.8986 13.1373,-17.0941 13.7988,-28.248 0,-5.9143 -0.6601,-11.1809 -3.293,-16.4336 -2.6199,-5.2528 -6.5637,-10.5045 -11.1679,-14.4473 -4.5913,-3.9428 -13.7855,-9.8578 -26.9239,-17.7305 -16.4197,-9.1955 -26.9263,-17.0942 -30.8691,-22.334 -3.2814,-3.9557 -4.6048,-7.8989 -3.9434,-12.4902 0,-5.2528 2.6333,-10.5181 7.2246,-15.1094 5.2658,-3.9428 11.8286,-5.914 19.0528,-5.914 6.5627,0 12.4764,1.9712 18.3906,5.914 6.5627,3.2814 11.1543,7.8859 13.7871,13.7871 3.2814,5.9143 5.2396,13.8006 6.5625,22.9961 l 3.9434,0.6602 1.3105,-50.582 h -3.9297 c -0.6614,3.2813 -1.9713,5.9147 -2.6328,6.5761 -1.3099,1.31 -3.2818,1.972 -4.5918,1.3106 -1.9714,0 -4.604,-0.6627 -8.5469,-2.6211 -8.5341,-3.9428 -16.421,-6.5742 -24.3066,-6.5742 -0.7798,-0.041 -1.549,-0.063 -2.3086,-0.068 z m 173.0957,24.3594 32.8516,54.5254 -49.2715,7.2246 z m 130.7344,63.0586 -14.4609,3.9433 6.5625,27.5996 15.123,-3.955 z m -389.9785,33.2461 a 9.9867194,9.9867194 0 0 0 -6.1309,2.2265 c -2.6199,1.9585 -4.5918,4.5917 -4.5918,7.8731 -0.6614,3.2813 0,6.5754 1.9727,9.1953 1.9584,2.6328 4.5917,3.9303 7.873,4.5918 a 13.28104,13.28104 0 0 0 8.5469,-2.6192 c 2.6199,-1.9714 4.5898,-4.5924 4.5898,-7.8867 a 9.9348403,9.9348403 0 0 0 -1.9707,-8.5332 c -1.9714,-2.6199 -4.6034,-3.9303 -7.8847,-4.5918 a 9.9867194,9.9867194 0 0 0 -2.4043,-0.2558 z m 175.8359,6.1699 c -3.2943,0 -6.5897,1.3235 -8.5351,3.9433 -1.9714,1.9715 -3.295,5.2519 -3.295,8.5333 a 9.3512009,9.3512009 0 0 0 3.9571,7.8867 c 2.6069,2.6199 5.2388,3.2812 8.5332,3.2812 a 9.3901102,9.3901102 0 0 0 7.873,-3.9433 c 2.6329,-1.9714 3.2949,-5.2519 3.2949,-8.5332 a 10.868663,10.868663 0 0 0 -3.2949,-7.8868 c -2.6328,-2.6199 -5.2648,-3.2812 -8.5332,-3.2812 z" transform="matrix(0.0771024,0,0,0.0771024,35.220001,38.551201)"></path><path id="path8" style="opacity:1;fill:#0088bb;fill-opacity:1;stroke:none;stroke-width:3.07167;stroke-miterlimit:4;stroke-dasharray:none" d="m 242.44824,24.928857 c -7.09145,0 -13.90425,1.220184 -20.24033,3.460827 4.63046,0.578413 8.24768,3.286465 12.3946,6.433874 l 20.05894,-0.130452 v 8.557578 h -9.13756 l -0.0505,19.728582 h -6.61194 -2.17746 V 43.250684 h -9.60489 l -0.003,0.002 -0.002,-0.002 h -0.0758 l -0.002,-0.07034 -1.09754,-0.99601 c -1.98691,-1.802618 -4.36535,-3.237014 -6.19537,-3.490619 -2.52089,-0.328306 -4.28745,0.343335 -5.55721,1.558359 -1.27129,1.216471 -2.06641,3.095387 -2.06641,5.415299 -1e-5,2.207864 1.87219,4.719512 3.21243,6.378344 4.84556,4.59659 10.77674,7.148515 17.34873,12.001656 4.3493,3.214917 6.97524,7.157655 8.17522,11.583511 l 8.01357,-17.154291 h 0.07 v -0.252969 l 22.30921,-1.77e-4 c 13.33099,0 22.78669,2.462477 28.6828,7.302253 -8.41568,-23.606665 -31.02064,-40.596845 -57.44351,-40.596845 z m -40.48525,15.445915 c -5.42386,4.832252 -9.98247,10.615291 -13.4107,17.082366 l 13.50872,28.114106 2.42214,-0.629866 0.8698,0.782178 c 5.81651,5.219736 9.71516,7.809391 13.86182,7.767646 3.58073,-0.04566 7.06122,-1.5898 7.96613,-2.43608 1.91787,-1.803468 4.25924,-6.72257 4.25924,-9.514986 0,-1.754483 -0.87932,-4.008916 -1.87956,-5.232315 l -0.007,-0.0076 -0.007,-0.0098 c -1.20257,-1.504323 -2.27425,-2.849546 -4.91325,-4.734133 l -7.14887,-5.035757 c -4.82031,-3.378037 -8.50585,-5.465934 -11.17666,-8.308488 -1.64781,-1.636569 -5.23195,-4.367046 -5.29066,-10.452817 -0.0483,-2.690832 0.27475,-5.155876 0.94736,-7.384402 z m 58.00251,28.562399 -3.4e-4,31.419089 h 14.16925 c 13.54475,0 22.03757,-3.927915 22.03757,-15.707339 0,-11.779428 -8.36657,-15.71175 -22.794,-15.71175 z m -76.85142,2.981506 c -1.05817,4.487079 -1.61919,9.162134 -1.61919,13.963535 0,23.973648 13.91894,44.762058 34.09775,54.709518 z m 91.59255,5.753589 h 2.42162 v 19.075447 h -2.46428 v -1.99713 c -0.68028,0.850563 -1.06209,1.190208 -2.04014,1.657427 -1.01916,0.509163 -2.12307,0.509117 -3.22778,0.509117 -2.21028,0 -3.61267,-0.76402 -5.141,-2.335957 -1.48723,-1.529163 -2.2531,-3.441751 -2.2531,-5.693123 0,-2.209443 0.76505,-3.695736 2.2531,-5.182955 1.44528,-1.529159 2.88794,-2.294173 5.141,-2.294173 1.18944,0 2.29335,0.213063 3.26973,0.680284 0.9789,0.46638 1.36058,0.722229 2.04085,1.613889 z m 11.13029,3.611023 c 2.25307,0 4.03632,0.765012 5.43716,2.294172 1.40248,1.52916 2.12476,3.526383 2.12476,5.989985 v 0.128336 H 281.122 c 0.1275,1.61388 0.97631,2.804241 1.57105,3.270617 0.80777,0.722217 1.95438,1.189343 3.27131,1.274892 1.10389,0.04285 2.54928,-0.127504 3.48286,-0.55195 l 0.0427,2.08123 c -0.97637,0.849709 -2.03825,0.934485 -3.65298,0.934485 -2.16582,0 -4.16309,-0.764289 -5.52283,-2.081229 -1.57108,-1.444432 -2.25134,-3.398812 -2.25134,-5.523533 0,-2.293315 0.72214,-4.163009 2.20851,-5.60745 1.44527,-1.486379 3.31428,-2.209555 5.56566,-2.209555 z m -36.93717,1.835304 -27.18121,60.085327 c 6.47427,2.34919 13.45518,3.63164 20.7297,3.63164 2.1785,0 4.33073,-0.11636 6.45151,-0.34111 z m 37.43464,0.659305 c -0.13655,-0.0025 -0.27399,0.0011 -0.41198,0.01181 -1.06192,0.127497 -2.16586,0.552894 -2.88807,1.147613 -0.63751,0.50916 -0.89246,1.232072 -1.18939,2.335953 h 8.45356 c -0.46722,-1.232219 -0.50905,-1.91082 -1.27488,-2.505539 -0.8169,-0.631941 -1.73338,-0.971537 -2.68924,-0.98984 z m -16.52691,0.09096 c -0.0942,-0.0015 -0.18905,3.45e-4 -0.28468,0.0056 -1.61388,0.08557 -2.80324,0.935154 -3.48268,1.614594 -0.68029,0.680278 -1.35987,1.699507 -1.35987,3.39895 0,1.784988 0.4262,2.718596 1.44536,3.824157 0.6375,0.722216 1.86972,1.358978 3.52552,1.358978 1.35972,0 2.33603,-0.424504 3.61103,-1.52839 0.84972,-0.765834 1.14762,-1.955234 1.14762,-3.569952 0,-1.69944 -0.46892,-2.464511 -1.23224,-3.39895 -0.7172,-0.916144 -1.95719,-1.682604 -3.37006,-1.705028 z m -60.18561,17.437752 -3.6e-4,3.5e-4 c 2.4e-4,1.2e-4 4.8e-4,2.3e-4 7.1e-4,3.6e-4 z m 3.5e-4,7.1e-4 9.73464,20.25954 9.20577,-19.70618 c -2.57312,0.9499 -5.6552,1.52666 -9.37695,1.78365 h -0.003 l -0.006,0.002 c -2.94224,0.18866 -6.18662,-0.65466 -9.5534,-2.33928 z m 91.46828,1.20684 c -3e-5,1.7e-4 -1.2e-4,3.5e-4 -1.8e-4,5.2e-4 1.8e-4,-1.7e-4 3.7e-4,-3.5e-4 5.2e-4,-5.2e-4 z m -1.8e-4,5.2e-4 c -5.61897,5.79705 -14.99469,8.45357 -28.13631,8.45357 h -0.008 l -12.9804,-0.21594 v 33.51107 c 19.81905,-5.96947 35.44684,-21.79113 41.125,-41.7487 z" inkscape:connector-curvature="0"></path></g></g></svg> 